<svg width="5" height="10" viewBox="0 0 5 10" fill="none" xmlns="http://www.w3.org/2000/svg">
<path d="M0.43675 9.2965C0.315583 9.2965 0.2125 9.25683 0.1275 9.1775C0.0425001 9.09817 0 8.99492 0 8.86775V0.428749C0 0.301582 0.0436672 0.198334 0.131001 0.119C0.218167 0.0396669 0.32125 0 0.44025 0C0.470084 0 0.569917 0.0475839 0.73975 0.142751L4.7925 4.19575C4.84983 4.25292 4.89608 4.3205 4.93125 4.3985C4.96658 4.4765 4.98425 4.55992 4.98425 4.64875C4.98425 4.73758 4.96658 4.82083 4.93125 4.8985C4.89608 4.97617 4.84983 5.04367 4.7925 5.101L0.739 9.1545C0.698167 9.19533 0.652 9.22925 0.600501 9.25625C0.549001 9.28308 0.494417 9.2965 0.43675 9.2965Z" fill="#555C3B"/>
</svg>
