<svg width="21" height="21" viewBox="0 0 21 21" fill="none" xmlns="http://www.w3.org/2000/svg">
<path d="M10.1435 20.305C8.74133 20.305 7.42367 20.0395 6.1905 19.5085C4.95733 18.9775 3.88283 18.254 2.967 17.338C2.051 16.4222 1.3275 15.347 0.7965 14.1125C0.2655 12.8782 0 11.5592 0 10.1557C0 8.75225 0.2655 7.43325 0.7965 6.19875C1.3275 4.96408 2.05067 3.88867 2.966 2.9725C3.88133 2.05633 4.95633 1.33192 6.191 0.799249C7.42567 0.266416 8.74492 0 10.1488 0C11.5526 0 12.872 0.266249 14.107 0.798749C15.342 1.33125 16.4175 2.05525 17.3335 2.97075C18.2493 3.88642 18.9735 4.96108 19.506 6.19475C20.0387 7.42858 20.305 8.74683 20.305 10.1495V11.4715C20.305 12.4293 19.9647 13.2354 19.284 13.8897C18.6033 14.5441 17.7724 14.8712 16.7913 14.8712C16.1769 14.8712 15.5997 14.7234 15.0597 14.4277C14.5196 14.1321 14.1078 13.7136 13.8245 13.1723C13.3992 13.7509 12.8603 14.1788 12.2078 14.4557C11.5554 14.7327 10.8699 14.8712 10.1513 14.8712C8.83675 14.8712 7.71767 14.4153 6.794 13.5035C5.8705 12.5917 5.40875 11.4746 5.40875 10.1522C5.40875 8.83008 5.87008 7.70575 6.79275 6.77925C7.71525 5.85292 8.83367 5.38975 10.148 5.38975C11.4623 5.38975 12.5813 5.853 13.505 6.7795C14.4285 7.706 14.8903 8.83133 14.8903 10.1555V11.4382C14.8903 11.9419 15.0769 12.3681 15.4503 12.7168C15.8234 13.0654 16.2682 13.2397 16.7847 13.2397C17.2994 13.2397 17.7408 13.0654 18.109 12.7168C18.4773 12.3681 18.6615 11.9419 18.6615 11.4382V10.1495C18.6615 7.77833 17.8357 5.76783 16.184 4.118C14.5322 2.46833 12.5207 1.6435 10.1495 1.6435C7.77833 1.6435 5.76683 2.46933 4.115 4.121C2.46333 5.77283 1.6375 7.78433 1.6375 10.1555C1.6375 12.5267 2.46233 14.5382 4.112 16.19C5.76183 17.8417 7.77233 18.6675 10.1435 18.6675H14.6837C14.9176 18.6675 15.112 18.7463 15.267 18.904C15.422 19.0618 15.4995 19.2573 15.4995 19.4905C15.4995 19.7222 15.422 19.9158 15.267 20.0715C15.112 20.2272 14.9176 20.305 14.6837 20.305H10.1435ZM10.152 13.2397C11.0137 13.2397 11.7469 12.9391 12.3518 12.3377C12.9564 11.7366 13.2587 11.0088 13.2587 10.1545C13.2587 9.27517 12.9556 8.53308 12.3492 7.92825C11.7428 7.32358 11.0087 7.02125 10.147 7.02125C9.28533 7.02125 8.55208 7.324 7.94725 7.9295C7.34258 8.53483 7.04025 9.27717 7.04025 10.1565C7.04025 11.0108 7.34342 11.7383 7.94975 12.339C8.55625 12.9395 9.29033 13.2397 10.152 13.2397Z" fill="#0C0C0C"/>
</svg>
