<svg width="31" height="24" viewBox="0 0 31 24" fill="none" xmlns="http://www.w3.org/2000/svg">
<path d="M1.41958 2.83875C1.01875 2.83875 0.681944 2.70153 0.409167 2.42708C0.136389 2.15292 0 1.81444 0 1.41167C0 1.00917 0.136389 0.673195 0.409167 0.40375C0.681944 0.134583 1.01875 0 1.41958 0H29.0787C29.4796 0 29.8181 0.137083 30.0942 0.41125C30.3703 0.685416 30.5083 1.02389 30.5083 1.42667C30.5083 1.82917 30.3703 2.16514 30.0942 2.43458C29.8181 2.70403 29.4796 2.83875 29.0787 2.83875H1.41958ZM1.41958 23.9108C1.01875 23.9108 0.681944 23.7737 0.409167 23.4996C0.136389 23.2254 0 22.8869 0 22.4842C0 22.0817 0.136389 21.7457 0.409167 21.4762C0.681944 21.2068 1.01875 21.0721 1.41958 21.0721H29.0787C29.4796 21.0721 29.8181 21.2093 30.0942 21.4837C30.3703 21.7579 30.5083 22.0964 30.5083 22.4992C30.5083 22.9017 30.3703 23.2376 30.0942 23.5071C29.8181 23.7762 29.4796 23.9108 29.0787 23.9108H1.41958ZM1.41958 13.375C1.01875 13.375 0.681944 13.2378 0.409167 12.9633C0.136389 12.6892 0 12.3507 0 11.9479C0 11.5454 0.136389 11.2094 0.409167 10.94C0.681944 10.6706 1.01875 10.5358 1.41958 10.5358H29.0787C29.4796 10.5358 29.8181 10.6731 30.0942 10.9475C30.3703 11.2217 30.5083 11.5601 30.5083 11.9629C30.5083 12.3654 30.3703 12.7014 30.0942 12.9708C29.8181 13.2403 29.4796 13.375 29.0787 13.375H1.41958Z" fill="#555C3B"/>
</svg>
