<svg width="34" height="28" viewBox="0 0 34 28" fill="none" xmlns="http://www.w3.org/2000/svg">
<path d="M2.83887 0.5H30.9932C31.5453 0.500052 32.0287 0.672844 32.459 1.03418L32.6406 1.20117C33.1158 1.67609 33.3418 2.21744 33.3418 2.84863V24.3359C33.3418 24.8854 33.1691 25.3671 32.8076 25.7959L32.6416 25.9766C32.1669 26.4499 31.6249 26.6747 30.9932 26.6748H2.83887C2.21043 26.6748 1.67126 26.4498 1.19824 25.9766C0.724996 25.5035 0.5 24.9644 0.5 24.3359V2.84863C0.500028 2.21689 0.724895 1.67496 1.19824 1.2002H1.19922C1.61316 0.784724 2.0773 0.560357 2.60742 0.510742L2.83887 0.5ZM2.33887 2.98145V24.8359H31.4932V4.44141L30.7178 4.95215L17.4297 13.7002C17.3203 13.7576 17.2217 13.8039 17.1328 13.8389C17.0887 13.8562 17.0199 13.8721 16.916 13.8721C16.8123 13.8721 16.7434 13.8562 16.6992 13.8389C16.6111 13.8042 16.5127 13.7589 16.4043 13.7021L3.33887 5.10059V3.63672L16.6416 12.3506L16.915 12.5293L17.1895 12.3506L31.0996 3.26758L32.5068 2.34863H1.37109L2.33887 2.98145Z" fill="#C4C9B3" stroke="#C4C9B3"/>
</svg>
