<svg width="26" height="21" viewBox="0 0 26 21" fill="none" xmlns="http://www.w3.org/2000/svg">
<path d="M2.12891 0.5H23.2451C23.6838 0.500102 24.058 0.655513 24.3916 0.989258H24.3926C24.7264 1.32297 24.8809 1.69793 24.8809 2.13672V18.252C24.8809 18.6882 24.7264 19.0611 24.3926 19.3936C24.0591 19.7261 23.6844 19.8808 23.2451 19.8809H2.12891C1.69229 19.8808 1.31954 19.7268 0.987305 19.3945C0.654816 19.0622 0.5 18.6887 0.5 18.252V2.13672C0.5 1.69727 0.654664 1.32191 0.987305 0.988281C1.31973 0.654543 1.69277 0.500037 2.12891 0.5ZM1.62891 2.30371V18.752H23.7451V3.09961L22.9697 3.60938L13.0117 10.165C12.9338 10.2058 12.8649 10.2386 12.8037 10.2627C12.7881 10.2688 12.7523 10.2783 12.6865 10.2783C12.6213 10.2783 12.586 10.2688 12.5703 10.2627C12.5095 10.2388 12.4406 10.2064 12.3633 10.166L2.62891 3.75684V2.95801L12.4131 9.36719L12.6865 9.54688L12.96 9.36816L23.3926 2.55566L24.7998 1.63672H0.609375L1.62891 2.30371Z" fill="#555C3B" stroke="#555C3B"/>
</svg>
