<svg width="31" height="31" viewBox="0 0 31 31" fill="none" xmlns="http://www.w3.org/2000/svg">
<path d="M2.11426 0.5H7.94727C8.28363 0.5 8.55211 0.590937 8.77539 0.765625L8.86914 0.845703C9.09745 1.06064 9.27348 1.34233 9.38867 1.70703L9.43457 1.86914L10.5469 6.90234C10.6097 7.33065 10.5985 7.69018 10.5273 7.98926C10.4604 8.27045 10.3242 8.50702 10.1123 8.70898L10.1064 8.71484L5.90918 12.8545L5.62988 13.1299L5.83008 13.4658C6.53504 14.6505 7.28339 15.7597 8.0752 16.792C8.77036 17.6984 9.53313 18.5656 10.3623 19.3945L10.7217 19.748C11.7355 20.7953 12.7948 21.7443 13.8994 22.5947C15.0103 23.45 16.1698 24.1987 17.3789 24.8389L17.71 25.0137L17.9717 24.7461L21.9795 20.6328L21.9893 20.6221C22.225 20.3662 22.4808 20.1919 22.7578 20.0879L22.8779 20.0479C23.22 19.9464 23.5609 19.9295 23.9072 19.9961L28.6328 21.042C29.0628 21.1614 29.3922 21.3744 29.6416 21.6758C29.8868 21.9719 30.0088 22.3093 30.0088 22.709V28.3945C30.0087 28.8729 29.8523 29.2456 29.5459 29.5488C29.2368 29.8547 28.864 30.0087 28.3945 30.0088C25.2141 30.0088 21.9655 29.2437 18.6455 27.7012C15.3266 26.1592 12.2434 23.968 9.39648 21.1211C6.54987 18.2744 4.35683 15.1896 2.81152 11.8672C1.26567 8.54378 0.5 5.29734 0.5 2.12402C0.500031 1.64585 0.654938 1.27027 0.960938 0.962891H0.961914C1.26775 0.655379 1.64015 0.5 2.11426 0.5ZM2.35938 2.87012C2.40986 4.03383 2.5929 5.25892 2.90527 6.54395C3.21918 7.83519 3.7123 9.26698 4.38086 10.8359L4.66992 11.5146L5.19336 10.9941L8.55859 7.64746L8.75195 7.45508L8.69434 7.18848L7.74609 2.74414L7.66211 2.34863H2.33691L2.35938 2.87012ZM28.1592 22.8262L27.7607 22.7432L23.6182 21.8857L23.3467 21.8301L23.1553 22.0303L19.8838 25.459L19.4023 25.9639L20.0342 26.2578C21.1713 26.7868 22.4065 27.2172 23.7373 27.5508C25.0696 27.8846 26.3695 28.0854 27.6348 28.1494L28.1592 28.1758V22.8262Z" fill="#C4C9B3" stroke="#C4C9B3"/>
</svg>
