<svg width="23" height="23" viewBox="0 0 23 23" fill="none" xmlns="http://www.w3.org/2000/svg">
<path d="M1.58594 0.5H5.96094C6.21981 0.500063 6.40971 0.57889 6.56543 0.725586H6.56641C6.73959 0.888733 6.87111 1.11217 6.9502 1.41895H6.95117L7.78809 5.20605C7.83157 5.51032 7.82177 5.75981 7.77344 5.96289C7.74002 6.10328 7.68171 6.22634 7.59473 6.33594L7.49805 6.44141L7.49219 6.44727L4.34375 9.55176L4.06543 9.82715L4.26562 10.1631C4.66388 10.8324 5.08032 11.47 5.51562 12.0752L5.95703 12.6699C6.55673 13.4518 7.22278 14.1953 7.9541 14.9004C8.71757 15.6888 9.51521 16.404 10.3477 17.0449C11.1862 17.6905 12.0624 18.2558 12.9756 18.7393L13.3066 18.9141L13.5684 18.6465L16.5742 15.5615L16.584 15.5518C16.7722 15.3474 16.9744 15.2205 17.1934 15.1553C17.3716 15.1024 17.5489 15.0838 17.7275 15.0967L17.9072 15.1201L21.4395 15.9014C21.7027 15.9742 21.9074 16.096 22.0684 16.2627L22.1348 16.3369C22.2997 16.5361 22.3809 16.7609 22.3809 17.0322V21.2959C22.3808 21.6233 22.2759 21.8707 22.0713 22.0732C21.864 22.2782 21.6164 22.3808 21.2959 22.3809C18.9313 22.3809 16.5128 21.8133 14.0371 20.6631C11.5624 19.5134 9.26158 17.8787 7.13574 15.7529C5.01009 13.6273 3.37396 11.3251 2.22168 8.84766C1.0689 6.36927 0.5 3.95204 0.5 1.59277C0.500075 1.26541 0.604713 1.01631 0.80957 0.810547C1.01429 0.604702 1.2619 0.5 1.58594 0.5ZM1.64453 2.1582C1.68279 3.04022 1.82169 3.96694 2.05762 4.9375C2.29506 5.91423 2.66755 6.99453 3.1709 8.17578L3.45996 8.85449L3.9834 8.33398L6.50684 5.82422L6.7002 5.63184L6.64355 5.36523L5.93164 2.03223L5.84766 1.63672H1.62207L1.64453 2.1582ZM21.2451 17.0176L20.8457 16.9346L17.7393 16.292L17.4678 16.2363L17.2764 16.4365L14.8223 19.0078L14.3408 19.5127L14.9736 19.8066C15.8343 20.207 16.7675 20.5333 17.7725 20.7852C18.7789 21.0374 19.762 21.1879 20.7197 21.2363L21.2451 21.2627V17.0176Z" fill="#555C3B" stroke="#555C3B"/>
</svg>
