<svg width="17" height="21" viewBox="0 0 17 21" fill="none" xmlns="http://www.w3.org/2000/svg">
<path d="M1.70325 20.305C1.24325 20.305 0.844416 20.1361 0.50675 19.7983C0.168916 19.4606 0 19.0617 0 18.6017V1.70925C0 1.24758 0.168916 0.847332 0.50675 0.508499C0.844416 0.169499 1.24325 0 1.70325 0H14.5957C15.0574 0 15.4577 0.169499 15.7965 0.508499C16.1355 0.847332 16.305 1.24758 16.305 1.70925V18.6017C16.305 19.0617 16.1355 19.4606 15.7965 19.7983C15.4577 20.1361 15.0574 20.305 14.5957 20.305H12.4452C12.1097 20.305 11.8078 20.22 11.5395 20.05C11.2712 19.8802 11.0592 19.6523 10.9037 19.3662L10.3577 18.249H5.94725L5.37025 19.3722C5.21475 19.6542 5.00283 19.8802 4.7345 20.05C4.46617 20.22 4.16625 20.305 3.83475 20.305H1.70325ZM1.70325 18.6017H3.84075L4.412 17.4843C4.564 17.1973 4.77508 16.9681 5.04525 16.7968C5.31525 16.6254 5.61592 16.5397 5.94725 16.5397H10.3577C10.6832 16.5397 10.9807 16.6257 11.25 16.7975C11.5193 16.9695 11.7317 17.1964 11.887 17.4783L12.4322 18.6017H14.5957V1.70925H1.70325V18.6017ZM4.6245 13.1723H11.6745C11.804 13.1723 11.9156 13.1245 12.0092 13.029C12.1027 12.9335 12.1495 12.8229 12.1495 12.6972C12.1495 11.8472 11.7287 11.2681 10.887 10.9598C10.0453 10.6514 9.13283 10.4972 8.1495 10.4972C7.16617 10.4972 6.25367 10.6514 5.412 10.9598C4.57033 11.2681 4.1495 11.8472 4.1495 12.6972C4.1495 12.8229 4.19625 12.9335 4.28975 13.029C4.38342 13.1245 4.495 13.1723 4.6245 13.1723ZM8.1475 8.82225C8.64883 8.82225 9.07867 8.64375 9.437 8.28675C9.79533 7.92975 9.9745 7.50058 9.9745 6.99925C9.9745 6.49792 9.796 6.06808 9.439 5.70975C9.082 5.35142 8.65283 5.17225 8.1515 5.17225C7.65017 5.17225 7.22033 5.35075 6.862 5.70775C6.50367 6.06475 6.3245 6.49392 6.3245 6.99525C6.3245 7.49658 6.503 7.92642 6.86 8.28475C7.217 8.64308 7.64617 8.82225 8.1475 8.82225Z" fill="#0C0C0C"/>
</svg>
